<?xml version="1.0" encoding="UTF-8"?>
<svg width="136px" height="32px" viewBox="0 0 136 32" version="1.1" xmlns="http://www.w3.org/2000/svg">
  <g fill="#003781">
    <path d="M31.999,15.9997 C31.999,24.9057 24.908,31.9997 16,31.9997 C7.092,31.9997 0,24.9057 0,15.9997 C0,7.0927 7.092,0.0007 16,0.0007 C24.908,0.0007 31.999,7.0927 31.999,15.9997" />
    <path fill="#FFFFFF" d="M11.4619,10.2427 L13.8089,17.1077 L13.2529,18.8377 L9.4219,18.8377 L8.7109,21.8797 L15.9069,21.8797 L16.6389,18.7047 L12.3139,6.4887 L8.0349,6.4887 L3.9879,21.8797 L7.2229,21.8797 L11.4619,10.2427 Z M21.2144,6.4887 L16.9354,21.8797 L20.1704,21.8797 L24.4494,6.4887 L21.2144,6.4887 Z M24.0864,15.5967 L25.3644,21.8797 L28.3824,21.8797 L27.1044,15.5967 C27.0224,15.1777 26.9664,14.8097 26.9664,14.5497 C26.9664,14.3697 26.9954,14.1867 27.0504,14.0017 C27.1324,13.7167 27.2734,13.4807 27.4714,13.2957 C27.6704,13.1097 27.8404,12.9737 27.9874,12.8837 C28.2734,12.7187 28.5594,12.5837 28.8454,12.4727 L28.8644,12.4647 C29.1394,12.3627 29.4234,12.2507 29.7184,12.1287 L28.1664,6.4887 C28.0544,6.5147 27.9004,6.5417 27.7014,6.5727 C27.5034,6.6017 27.3114,6.6287 27.1324,6.6507 C26.7664,6.7047 26.4104,6.8027 26.0614,6.9397 C25.7144,7.0757 25.3794,7.2867 25.0554,7.5717 C24.7344,7.8567 24.4714,8.2307 24.2654,8.6927 C24.0594,9.1547 23.9564,9.7227 23.9564,10.3967 C23.9564,10.6557 23.9784,10.9547 24.0204,11.2957 C24.0634,11.6387 24.1144,12.0237 24.1764,12.4547 C24.2384,12.8857 24.3104,13.3487 24.3954,13.8377 C24.4784,14.3307 24.5644,14.8567 24.6534,15.4147 L24.0864,15.5967 Z" />
    <path fill="#FFFFFF" d="M41,17.9146 L45.159,17.9146 L45.159,22.5656 L41,22.5656 L41,17.9146 Z M47.9028,12.6316 L54.8838,12.6316 L54.8838,14.5506 L50.6468,14.5506 L50.6468,16.7146 L54.2118,16.7146 L54.2118,18.5976 L50.6468,18.5976 L50.6468,20.9066 L55.1458,20.9066 L55.1458,22.8036 L47.9028,22.8036 L47.9028,12.6316 Z M56.8897,12.6316 L59.6577,12.6316 L59.6577,22.8036 L56.8897,22.8036 L56.8897,12.6316 Z M65.4673,12.6316 L69.2993,12.6316 C69.9503,12.6316 70.5403,12.7086 71.0633,12.8606 C71.5863,13.0146 72.0313,13.2356 72.3943,13.5246 C72.7583,13.8136 73.0403,14.1596 73.2373,14.5616 C73.4363,14.9666 73.5353,15.4066 73.5353,15.8856 C73.5353,16.3856 73.4383,16.8456 73.2453,17.2636 C73.0533,17.6816 72.7803,18.0436 72.4253,18.3496 C72.0713,18.6556 71.6423,18.8946 71.1373,19.0676 C70.6333,19.2396 70.0743,19.3256 69.4633,19.3256 L68.2353,19.3256 L68.2353,22.8036 L65.4673,22.8036 L65.4673,12.6316 Z M68.2353,17.3556 L69.1273,17.3556 C69.5163,17.3556 69.8203,17.2536 70.0383,17.0496 C70.2553,16.8466 70.3653,16.5896 70.3653,16.2776 C70.3653,15.9666 70.2523,15.7156 70.0283,15.5296 C69.8043,15.3446 69.4983,15.2526 69.1073,15.2526 L68.2353,15.2526 L68.2353,17.3556 Z M74.9355,12.6316 L77.9765,12.6316 L80.2065,18.5726 L80.2425,18.5726 L82.3515,12.6316 L85.3565,12.6316 L81.6035,22.8036 L78.7735,22.8036 L74.9355,12.6316 Z M85.9316,12.6316 L92.9126,12.6316 L92.9126,14.5506 L88.6756,14.5506 L88.6756,16.7146 L92.2406,16.7146 L92.2406,18.5976 L88.6756,18.5976 L88.6756,20.9066 L93.1746,20.9066 L93.1746,22.8036 L85.9316,22.8036 L85.9316,12.6316 Z M98.4851,12.6316 C99.1611,12.6316 99.7611,12.7206 100.2871,12.9006 C100.8121,13.0796 101.2541,13.3396 101.6101,13.6776 C101.9661,14.0156 102.2361,14.4236 102.4191,14.9006 C102.6031,15.3786 102.6941,15.9126 102.6941,16.5046 C102.6941,17.0606 102.6031,17.5756 102.4191,18.0486 C102.2361,18.5246 101.9691,18.9356 101.6191,19.2866 C101.2681,19.6356 100.8391,19.9086 100.3301,20.1046 C99.8221,20.3036 99.2611,20.4016 98.6491,20.4016 L97.5691,20.4016 L97.5691,22.8036 L94.8011,22.8036 L94.8011,12.6316 L98.4851,12.6316 Z M97.5691,18.2796 L98.0301,18.2796 C98.5071,18.2796 98.8611,18.1766 99.0901,17.9726 C99.3201,17.7666 99.4351,17.4886 99.4351,17.1376 C99.4351,16.7726 99.3161,16.4796 99.0801,16.2596 C98.8441,16.0386 98.4991,15.9306 98.0481,15.9306 L97.5691,15.9306 L97.5691,18.2796 Z M103.7783,12.6316 L106.5463,12.6316 L106.5463,22.8036 L103.7783,22.8036 L103.7783,12.6316 Z M108.4391,12.6316 L111.3031,12.6316 L113.5881,17.4866 L113.6231,17.4866 L113.6231,12.6316 L116.1101,12.6316 L116.1101,22.8036 L113.3431,22.8036 L111.0011,17.5936 L110.9661,17.5936 L110.9661,22.8036 L108.4391,22.8036 L108.4391,12.6316 Z M122.4197,12.4846 C123.0847,12.4846 123.7077,12.5886 124.2887,12.7976 C124.8697,13.0056 125.3727,13.2976 125.7997,13.6736 C126.2277,14.0496 126.5657,14.5016 126.8157,15.0296 C127.0667,15.5596 127.1917,16.1546 127.1917,16.8176 C127.1917,17.4866 127.0667,18.0836 126.8157,18.6096 C126.5657,19.1376 126.2277,19.5866 125.7997,19.9596 C125.3727,20.3326 124.8697,20.6226 124.2887,20.8296 C123.7077,21.0336 123.0847,21.1386 122.4197,21.1386 C121.7507,21.1386 121.1267,21.0336 120.5457,20.8296 C119.9647,20.6226 119.4617,20.3326 119.0347,19.9596 C118.6077,19.5866 118.2697,19.1376 118.0197,18.6096 C117.7697,18.0836 117.6447,17.4866 117.6447,16.8176 C117.6447,16.1546 117.7697,15.5596 118.0197,15.0296 C118.2697,14.5016 118.6077,14.0496 119.0347,13.6736 C119.4617,13.2976 119.9647,13.0056 120.5457,12.7976 C121.1267,12.5886 121.7507,12.4846 122.4197,12.4846 Z M122.4197,18.7986 C122.8137,18.7986 123.1637,18.6876 123.4677,18.4656 C123.7717,18.2426 123.9247,17.8996 123.9247,17.4336 L123.9247,16.2026 C123.9247,15.7366 123.7717,15.3936 123.4677,15.1716 C123.1637,14.9486 122.8137,14.8376 122.4197,14.8376 C122.0257,14.8376 121.6747,14.9486 121.3697,15.1716 C121.0647,15.3936 120.9127,15.7366 120.9127,16.2026 L120.9127,17.4336 C120.9127,17.8996 121.0647,18.2426 121.3697,18.4656 C121.6747,18.6876 122.0257,18.7986 122.4197,18.7986 Z M129.5364,12.6316 L132.4004,12.6316 L134.6854,17.4866 L134.7204,17.4866 L134.7204,12.6316 L137.2074,12.6316 L137.2074,22.8036 L134.4404,22.8036 L132.0984,17.5936 L132.0634,17.5936 L132.0634,22.8036 L129.5364,22.8036 L129.5364,12.6316 Z"/>
  </g>
</svg> 